<svg xmlns="http://www.w3.org/2000/svg" viewBox="0 0 68 71"><path d="M34.5 70.8 C33.3 70.8 32.0 70.8 30.7 70.6 C29.5 70.5 28.3 70.2 27.0 69.8 C25.7 69.5 24.5 69.0 23.1 68.4 C21.6 67.9 20.0 67.3 18.5 66.6 C17.1 65.8 15.6 65.0 14.3 64.1 C12.9 63.3 11.6 62.3 10.4 61.2 C9.2 60.1 8.1 59.0 7.1 57.7 C6.1 56.5 5.2 55.2 4.4 53.9 C3.6 52.5 2.8 51.1 2.3 49.7 C1.7 48.2 1.2 46.7 0.9 45.1 C0.5 43.5 0.3 41.9 0.1 40.3 C-0.0 38.6 -0.1 37.0 0.0 35.3 C0.1 33.7 0.3 32.1 0.5 30.4 C0.8 28.8 1.1 27.2 1.6 25.7 C2.0 24.1 2.6 22.6 3.2 21.1 C3.9 19.6 4.6 18.2 5.4 16.8 C6.2 15.4 7.1 14.0 8.1 12.7 C9.1 11.4 10.2 10.2 11.3 9.0 C12.5 7.9 13.7 6.8 15.0 5.8 C16.2 4.9 17.6 4.0 18.9 3.3 C20.3 2.5 21.7 1.9 23.2 1.4 C24.7 0.9 26.2 0.5 27.7 0.3 C29.3 0.0 30.8 -0.0 32.4 0.0 C34.0 0.0 35.6 0.2 37.2 0.5 C38.8 0.7 40.4 1.1 41.9 1.6 C43.5 2.0 45.0 2.6 46.5 3.2 C48.0 3.8 49.5 4.6 50.9 5.4 C52.3 6.2 53.6 7.1 54.9 8.0 C56.2 9.0 57.4 10.0 58.6 11.2 C59.7 12.3 60.7 13.5 61.7 14.8 C62.6 16.1 63.4 17.4 64.2 18.9 C64.9 20.3 65.5 21.8 66.0 23.3 C66.5 24.8 67.0 26.4 67.3 27.9 C67.6 29.5 67.8 31.2 67.9 32.8 C67.9 34.4 67.9 36.1 67.8 37.7 C67.6 39.3 67.3 40.9 67.0 42.4 C66.6 44.0 66.0 45.5 65.4 47.0 C64.8 48.4 64.1 49.9 63.3 51.3 C62.5 52.6 61.5 54.0 60.5 55.3 C59.5 56.6 58.4 57.8 57.2 58.9 C56.0 60.1 54.8 61.2 53.5 62.2 C52.2 63.2 50.7 64.2 49.4 65.0 C48.1 65.9 46.7 66.7 45.5 67.4 C44.2 68.0 43.2 68.6 42.0 69.1 C40.8 69.6 39.5 70.0 38.3 70.2 C37.1 70.5 35.8 70.7 34.5 70.8 Z" fill="none" stroke="#1a1a1a" stroke-width="2.5" vector-effect="non-scaling-stroke" stroke-linecap="round" stroke-linejoin="round"/></svg>