<svg xmlns="http://www.w3.org/2000/svg" viewBox="0 0 81 84"><path d="M48.0 83.5 C46.9 83.5 45.7 83.5 44.6 83.4 C43.5 83.2 42.5 83.0 41.4 82.6 C40.2 82.3 39.0 81.8 37.7 81.4 C36.4 80.9 34.8 80.3 33.4 79.7 C31.9 79.0 30.5 78.4 29.0 77.6 C27.6 76.9 26.2 76.1 24.7 75.2 C23.3 74.4 21.9 73.5 20.6 72.6 C19.2 71.6 17.9 70.6 16.6 69.6 C15.2 68.5 13.9 67.5 12.7 66.4 C11.4 65.2 10.3 64.1 9.2 62.8 C8.1 61.5 7.1 60.2 6.2 58.8 C5.3 57.4 4.5 56.0 3.8 54.5 C3.0 53.0 2.4 51.5 1.9 50.0 C1.4 48.4 0.9 46.9 0.6 45.3 C0.3 43.7 0.1 42.2 0.0 40.6 C-0.1 39.0 -0.1 37.5 0.1 35.9 C0.2 34.4 0.5 32.8 0.9 31.3 C1.3 29.8 1.8 28.2 2.3 26.7 C2.9 25.3 3.6 23.8 4.4 22.4 C5.1 21.0 6.0 19.6 6.9 18.3 C7.8 16.9 8.8 15.7 9.8 14.4 C10.8 13.2 11.9 12.0 13.0 10.8 C14.1 9.7 15.3 8.6 16.5 7.6 C17.8 6.6 19.0 5.7 20.4 4.9 C21.7 4.0 23.1 3.3 24.5 2.7 C25.9 2.0 27.3 1.5 28.8 1.1 C30.2 0.7 31.7 0.4 33.2 0.2 C34.8 0.0 36.3 -0.0 37.9 0.0 C39.4 0.0 41.0 0.2 42.5 0.5 C44.1 0.7 45.6 1.1 47.1 1.6 C48.6 2.1 50.1 2.6 51.6 3.3 C53.1 3.9 54.6 4.6 56.0 5.4 C57.4 6.1 58.9 7.0 60.2 7.9 C61.6 8.8 62.9 9.9 64.2 10.9 C65.4 12.0 66.6 13.1 67.8 14.3 C69.0 15.5 70.1 16.7 71.2 18.0 C72.2 19.3 73.2 20.6 74.1 22.0 C75.0 23.4 75.8 24.9 76.5 26.3 C77.2 27.8 77.8 29.4 78.3 30.9 C78.8 32.5 79.2 34.0 79.5 35.6 C79.8 37.2 80.0 38.8 80.1 40.4 C80.2 42.1 80.1 43.7 80.0 45.3 C79.8 47.0 79.6 48.6 79.2 50.2 C78.9 51.8 78.4 53.4 77.9 55.0 C77.4 56.5 76.7 58.1 76.1 59.6 C75.4 61.1 74.7 62.6 73.9 64.0 C73.1 65.4 72.2 66.8 71.3 68.1 C70.4 69.5 69.4 70.7 68.3 71.9 C67.2 73.1 66.1 74.2 64.9 75.3 C63.7 76.3 62.3 77.3 61.1 78.1 C59.9 79.0 58.8 79.7 57.7 80.4 C56.6 81.0 55.7 81.5 54.6 81.9 C53.6 82.4 52.5 82.7 51.4 83.0 C50.3 83.2 49.1 83.4 48.0 83.5 Z" fill="none" stroke="#1a1a1a" stroke-width="2.5" vector-effect="non-scaling-stroke" stroke-linecap="round" stroke-linejoin="round"/></svg>