<svg xmlns="http://www.w3.org/2000/svg" viewBox="0 0 56 64"><path d="M32.2 63.5 C31.0 63.6 29.7 63.5 28.5 63.3 C27.3 63.0 26.0 62.7 24.8 62.2 C23.6 61.7 22.5 61.1 21.2 60.4 C19.9 59.7 18.5 58.9 17.1 58.0 C15.8 57.1 14.5 56.0 13.3 55.0 C12.0 53.9 10.8 52.8 9.6 51.6 C8.4 50.4 7.3 49.2 6.2 48.0 C5.2 46.7 4.2 45.4 3.4 44.0 C2.6 42.7 1.9 41.3 1.4 39.8 C0.8 38.4 0.4 37.0 0.2 35.5 C-0.0 34.0 -0.1 32.5 0.0 31.0 C0.1 29.5 0.4 27.9 0.7 26.4 C1.1 24.8 1.7 23.3 2.3 21.8 C3.0 20.3 3.8 18.8 4.6 17.4 C5.4 16.0 6.4 14.6 7.4 13.3 C8.3 12.0 9.4 10.8 10.5 9.6 C11.7 8.4 12.8 7.3 14.1 6.3 C15.4 5.4 16.7 4.5 18.1 3.7 C19.5 2.9 20.9 2.2 22.3 1.7 C23.8 1.1 25.3 0.7 26.8 0.4 C28.3 0.2 29.8 0.0 31.4 0.0 C32.9 -0.0 34.4 0.1 35.8 0.3 C37.3 0.6 38.8 0.9 40.1 1.5 C41.5 2.0 42.8 2.7 44.1 3.4 C45.3 4.2 46.4 5.2 47.5 6.2 C48.5 7.3 49.5 8.4 50.3 9.7 C51.1 10.9 51.9 12.2 52.5 13.6 C53.2 15.1 53.7 16.5 54.2 18.1 C54.6 19.6 54.9 21.3 55.1 22.9 C55.3 24.6 55.5 26.3 55.5 28.0 C55.5 29.6 55.4 31.4 55.2 33.0 C55.0 34.7 54.7 36.4 54.3 38.0 C53.9 39.6 53.4 41.3 52.9 42.9 C52.3 44.5 51.7 46.1 51.0 47.6 C50.2 49.1 49.4 50.5 48.5 51.9 C47.6 53.2 46.5 54.5 45.5 55.6 C44.5 56.8 43.2 57.8 42.2 58.7 C41.2 59.7 40.3 60.5 39.2 61.1 C38.2 61.8 37.0 62.4 35.9 62.8 C34.7 63.2 33.4 63.5 32.2 63.5 Z" fill="none" stroke="#1a1a1a" stroke-width="2.5" vector-effect="non-scaling-stroke" stroke-linecap="round" stroke-linejoin="round"/></svg>