<svg xmlns="http://www.w3.org/2000/svg" viewBox="0 0 185 157"><path d="M50.0 149.9 C42.6 149.4 31.8 148.1 26.1 147.0 C20.4 145.8 14.5 145.2 12.9 145.5 C6.3 147.0 3.5 140.7 8.6 135.9 C10.0 134.6 12.8 131.2 14.8 128.5 C16.8 125.8 19.5 122.6 20.7 121.4 C22.0 120.2 22.7 119.0 22.3 118.7 C22.0 118.3 22.2 118.0 22.8 118.0 C23.5 118.0 24.0 117.1 24.0 115.9 C24.0 114.8 24.4 114.2 25.0 114.5 C25.6 114.8 26.0 114.8 26.1 114.3 C26.4 110.8 27.3 108.1 29.0 105.8 C30.1 104.3 31.0 102.6 31.0 102.1 C31.0 101.5 31.6 101.3 32.3 101.6 C33.0 101.8 34.8 101.0 36.2 99.7 C38.5 97.5 38.7 96.8 38.0 93.7 C36.8 88.1 38.6 86.2 43.1 88.7 C49.1 91.9 52.3 94.3 59.4 100.3 C63.2 103.5 67.9 107.2 69.9 108.5 C73.2 110.6 76.0 113.4 83.2 121.8 C84.8 123.6 86.0 125.4 86.0 125.9 C86.0 126.3 87.2 127.9 88.6 129.4 C90.1 130.8 90.7 132.0 90.1 132.0 C88.9 132.0 88.9 132.5 90.6 144.1 C91.0 147.1 90.8 149.0 90.1 149.4 C88.3 150.6 64.2 150.9 50.0 149.9 ZM99.8 129.7 C97.8 128.0 94.7 125.5 93.1 124.2 C91.4 122.9 90.0 121.4 90.0 120.8 C90.0 120.3 88.8 118.9 87.4 117.8 C86.0 116.7 85.1 115.2 85.4 114.4 C85.7 113.7 85.5 113.0 85.0 112.8 C84.5 112.6 83.9 111.4 83.7 110.0 C83.5 108.6 82.9 107.6 82.4 107.7 C81.9 107.8 78.5 105.1 74.9 101.7 C68.9 96.0 56.6 87.6 51.8 85.8 C50.8 85.4 50.1 84.6 50.4 84.1 C50.7 83.6 50.1 83.0 49.1 82.7 C45.2 81.7 46.6 73.0 50.6 73.0 C52.8 73.0 62.0 66.8 66.5 62.1 C68.7 59.9 71.2 58.1 72.1 58.0 C73.7 58.0 78.0 54.0 76.4 54.0 C75.2 54.0 90.1 39.9 98.1 33.5 C108.7 24.9 116.7 16.4 118.5 11.6 C120.2 7.1 123.4 5.0 125.4 7.0 C126.1 7.7 125.7 8.0 124.4 8.1 C123.0 8.1 123.2 8.4 125.3 9.2 C126.8 9.7 127.8 10.6 127.4 11.1 C127.1 11.6 127.4 12.0 127.9 12.0 C128.5 12.0 128.9 12.6 128.7 13.3 C128.6 13.9 129.1 14.4 129.9 14.2 C130.8 14.0 131.0 14.5 130.6 15.5 C130.2 16.5 130.8 17.4 132.3 18.0 C133.5 18.5 133.9 18.9 133.2 18.9 C132.5 19.0 132.2 19.5 132.5 20.0 C132.9 20.6 133.5 20.8 134.0 20.5 C134.4 20.2 136.5 22.2 138.5 24.9 C140.4 27.6 147.6 35.0 154.3 41.2 C161.0 47.4 166.6 52.8 166.6 53.2 C166.7 53.7 166.8 54.6 166.9 55.2 C167.0 56.1 167.3 56.0 168.0 55.0 C168.6 54.1 169.0 54.0 169.0 54.7 C169.0 55.3 169.8 56.6 170.8 57.6 C171.7 58.6 172.5 59.8 172.5 60.4 C172.5 61.0 173.0 61.5 173.7 61.5 C174.9 61.5 176.5 62.7 176.6 63.8 C176.6 64.2 177.2 66.4 177.9 68.8 C179.2 73.4 178.3 76.0 175.4 76.0 C174.6 76.0 172.3 77.0 170.2 78.3 C168.2 79.6 165.7 80.9 164.8 81.3 C163.9 81.6 159.7 84.7 155.6 88.0 C151.5 91.4 147.7 93.9 147.2 93.6 C146.2 93.0 142.3 96.7 142.7 97.9 C142.9 98.2 142.2 98.5 141.2 98.5 C140.3 98.6 139.6 99.1 139.7 99.7 C139.8 100.3 137.7 102.5 135.0 104.4 C132.2 106.4 130.0 107.5 130.0 106.9 C130.0 106.4 129.5 106.2 129.0 106.5 C128.4 106.9 128.2 107.5 128.5 107.9 C129.0 108.9 124.2 111.2 123.1 110.6 C122.1 110.0 116.5 115.8 115.7 118.3 C115.3 119.3 114.6 119.9 114.1 119.6 C112.9 118.8 106.8 128.8 107.6 130.2 C108.3 131.2 106.3 133.0 104.5 133.0 C104.0 133.0 101.8 131.5 99.8 129.7 Z" fill="#1a1a1a"/></svg>